<svg xmlns="http://www.w3.org/2000/svg" class="img-fluid" viewBox="0 0 20480 20480"><path fill="#FFF" d="M0 10240V0h20480v20480H0V10240zm15550 5935c237-36 398-111 534-250 138-140 209-296 255-561 8-42 11-1302 11-4160l-1-4099-32 35c-47 52-150 168-273 309l-164 186-140 159-145 166-230 260-304 344-160 181-181 205-70 80-70 80-80 90-80 90c-6 5-234 265-484 549l-160 182a11147 11147 0 0 0-277 314 106128 106128 0 0 1-579 655l-70 80-70 80-70 80-116 130c-29 30-65 71-80 90l-34 40-75 85-120 135-80 90-185 210-85 95c-250 285-426 477-545 595a541 541 0 0 1-435 170c-237 0-308-38-606-326l-264-254-215-205a188876 188876 0 0 0-855-815c-82-80-188-182-235-225-47-44-86-83-88-87s-43 34-90 85l-187 197a20739 20739 0 0 0-314 335c-47 50-135 143-194 208a994 994 0 0 1-120 117c-7 0-20 16-29 34-16 34-16 34 17 87l81 129c62 99 111 175 146 228 15 24 28 45 28 48s17 31 39 62l78 122 106 172 66 107 3 1263c4 1369 1 1289 57 1466a793 793 0 0 0 263 376 923 923 0 0 0 458 185c31 5 1447 9 3205 9 2691 1 3164-1 3245-13zM4548 14217c51-31 99-78 356-347l290-300 531-550 555-575c108-110 360-371 560-580a230714 230714 0 0 1 835-865c289-302 648-673 814-842 154-157 190-188 213-188 24 0 60 30 201 168l657 637 315 305 330 320 340 331c315 308 334 323 436 323 49 1 62-4 100-33 24-19 60-55 80-80a43690 43690 0 0 1 711-836l49-60 184-214a65966 65966 0 0 1 496-582l298-349a39187 39187 0 0 0 330-386 14687 14687 0 0 1 251-294l81-95 244-285 254-295 82-95 110-129 214-252 175-204c74-86 149-173 165-194a50176 50176 0 0 1 240-280 189443 189443 0 0 1 485-566l125-146 125-145c45-55 391-455 407-471 6-7 26-13 44-13 36 0 22-11 334 285a37573 37573 0 0 0 356 338c22 23 43 22 90-5 44-24 64-60 90-162l48-188 62-235 49-188 144-555c79-308 117-455 176-675l39-147 34-128c46-165 71-259 78-290 7-35 41-163 60-230 33-115 30-154-15-206-31-35-33-36-66-25l-290 91-160 50-160 50-95 30-125 40-190 60-160 50-130 40c-30 10-102 33-160 50l-160 50-190 60-190 60-160 50-160 49a10486 10486 0 0 1-320 101l-100 30c-65 20-110 44-152 83-57 52-70 33 147 238 472 447 445 418 445 455 0 26-11 46-48 87l-72 83c-87 101-169 194-201 229a15703 15703 0 0 0-259 295l-75 85a12693 12693 0 0 1-265 305c-30 36-62 72-70 80s-40 44-70 80l-60 70-70 80-86 96-60 70c-21 27-46 56-54 64-9 8-43 47-76 85l-249 285a92352 92352 0 0 0-396 455l-237 270a14525 14525 0 0 1-232 265c-30 36-74 85-96 110-23 25-55 61-70 80l-70 80c-23 25-55 61-70 80l-34 40-70 80-70 80-60 70c-30 36-74 85-96 110-23 25-55 61-70 80l-70 80c-23 25-55 61-70 80l-34 40-70 80c-36 41-67 77-71 80-8 8-191 219-223 259-17 20-50 59-75 86l-126 144c-87 102-289 334-392 449-55 61-70 72-97 72-35 0-38-3-482-438a125959 125959 0 0 0-1184-1152c-392-388-433-421-525-422-79-1-125 29-290 192l-200 196c-87 85-1720 1731-1945 1960a82184 82184 0 0 0-1071 1108 171693 171693 0 0 0-1080 1121c-243 250-351 363-364 382-35 50-55 97-55 128 0 76 32 116 329 412 157 157 299 292 316 300 77 40 133 37 213-10zm1944-4679 563-553c236-231 621-612 855-846 409-410 475-472 530-495l50-22c14-6 55-15 91-21 172-28 314 3 435 96 27 20 168 156 315 302 278 279 413 411 852 835 147 142 267 265 267 272 0 8 5 14 11 14 7 0 50 37 98 83l185 177c55 52 132 128 171 168l72 73 84-107 131-168 56-71 87-114a123007 123007 0 0 0 614-799l186-241 109-142 110-143 385-501c246-321 291-380 304-395l117-150 165-211 85-109 130-169c115-147 401-531 548-731l128-173c128-163 134-282 23-418-44-53-117-96-197-115-48-11-899-13-5127-14-5376 0-5110-2-5206 44a402 402 0 0 0-156 163c-58 125-43 171 142 458l112 175a49916 49916 0 0 1 168 267l65 104 125 197c104 165 310 487 407 637 35 55 71 111 78 125a1836 1836 0 0 1 100 154l145 230 149 233 139 218 137 215 126 197c32 51 64 101 69 111l63 98c28 44 52 88 52 97s7 17 15 17 15 4 15 9c0 4 36 64 80 132l167 261 330 512c36 54 67 105 71 114 4 12 31 47 38 51 1 1 62-59 136-131z" style="transform:none"/><g fill="#FFFBFF" style="transform:none"><path d="M16042 15989c3-32 6-34 42-37l38-3-23 23-42 38c-17 13-18 11-15-21zM11426 12521c-4-5 2-15 13-20 16-9 19-8 17 6-3 20-21 28-30 14zM7940 12361c-6-12-7-21-1-21 10 0 24 30 17 37-2 3-9-5-16-16zM7741 12044c-27-35-26-44 4-44 22 0 25 4 25 35 0 19-2 35-4 35-3 0-14-12-25-26zM11272 11951c-11-7-10-10 3-15 23-9 25-8 25 9s-9 19-28 6zM7719 11921c25-34 26-41 7-41-8 0-18-5-22-11-4-7 5-10 28-8 18 2 39 0 46-5 8-5 12 2 12 24 0 18-6 33-15 36-8 4-15 12-15 20 0 9-11 14-31 14h-30l20-29zM12310 11536c0-9 7-16 16-16s14 5 12 12c-6 18-28 21-28 4zM9996 11335c4-8 10-12 15-9 14 8 10 24-6 24-9 0-12-6-9-15zM10028 11290l-33-29 38-1c35 0 37 2 37 30 0 17-2 30-5 30s-19-13-37-30zM12627 11163c-9-14 8-33 21-24 10 6 10 10-2 20-8 7-17 8-19 4zM12860 10890c0-5 10-10 23-10 18 0 19 2 7 10-19 13-30 13-30 0zM8080 10695c0-8 4-15 9-15s11 7 15 15c3 9 0 15-9 15-8 0-15-7-15-15zM13167 10566c-6-15 1-26 15-26 11 0 10 27-1 34-5 3-11 0-14-8zM13775 9820c-8-13 3-30 20-30 20 0 30 21 14 31-18 11-26 11-34-1zM13920 9711c0-5 9-11 21-14 16-4 18-3 8 9-13 16-29 19-29 5zM6317 9686c-6-14-14-17-37-12-23 4-30 2-30-10 0-11 6-13 21-9 18 6 20 4 14-15s-4-21 17-15c31 10 30 8 26 47-2 26-5 29-11 14zM10940 9635c-10-12-10-15 4-15 9 0 16 7 16 15s-2 15-4 15-9-7-16-15zM6500 9571c0-12 7-24 15-28 24-9 25 0 4 26-19 23-19 23-19 2zM11174 9539c-3-6-1-16 5-22 8-8 11-5 11 11 0 24-5 28-16 11zM10790 9485c-10-13-9-15 9-15 12 0 21 6 21 15 0 8-4 15-9 15s-14-7-21-15zM11300 9420c0-5 7-10 15-10s15 5 15 10c0 6-7 10-15 10s-15-4-15-10zM11270 9306c0-16 18-31 27-22 3 3-2 12-11 21-14 14-16 14-16 1zM11402 9238c2-6 10-14 16-16 7-2 10 2 6 12-7 18-28 22-22 4zM10483 9188c-13-12-23-17-23-10 0 17-27 15-34-3-3-8-12-15-21-15-8 0-15-4-15-10 0-5 7-10 15-10 18 0 19-12 3-28-9-9-5-12 18-12 30 0 64 28 64 54 0 8 5 16 11 18s10 12 8 21c-4 16-6 15-26-5zM11390 9150c0-33 14-53 33-48 12 2 11 9-9 38-23 33-24 33-24 10zM11426 9145c4-8 10-15 15-15s9 7 9 15-7 15-15 15c-9 0-12-6-9-15zM11600 8860c0-25 4-30 25-30h26l-23 30c-12 17-23 30-25 30s-3-13-3-30zM11630 8875c0-8 5-15 10-15 6 0 10 7 10 15s-4 15-10 15c-5 0-10-7-10-15zM9986 8701c-19-21-12-28 13-12 7 5 12 14 9 21-2 7-10 4-22-9zM5656 8657c-7-14-15-17-37-12-36 8-53-20-25-41 10-7 15-17 11-23-4-7 3-11 18-11 29 0 50 35 45 76-4 24-6 26-12 11zM9820 8545c-10-12-10-15 4-15 9 0 16 7 16 15s-2 15-4 15-9-7-16-15zM12440 7781c0-12 6-21 15-21 8 0 15 4 15 9s-7 14-15 21c-13 10-15 9-15-9zM15789 7676c15-18-1-30-29-21-12 4-20 2-20-5 0-16 26-23 48-11 13 7 22 7 30-1 9-9 12-4 12 20 0 28-3 32-26 32-22 0-24-3-15-14zM12652 7483c3-35 6-38 37-41l33-3-28 40c-16 22-33 41-37 41-5 0-7-17-5-37zM12800 7306c0-16 5-26 15-26 8 0 15-4 15-10 0-5 7-10 17-10 14 0 14 2-2 20-15 16-15 22-5 35 8 10 9 15 1 15-6 0-11-5-11-11 0-8-5-8-15 1-13 11-15 8-15-14zM16141 7273l32-35c16-17 17-16 17 17s-2 35-31 35c-28 0-30-2-18-17zM12900 7176c0-18 5-26 18-26 11 0 18 7 18 20 0 10-2 17-5 15-2-3-10 0-18 6-10 9-13 6-13-15zM4421 6817c-6-8-8-17-4-20 7-8 33 11 33 24s-16 11-29-4zM13400 6533c0-18 5-33 10-33 6 0 10-9 10-20 0-16 7-20 31-20 34 0 34-3-8 50l-27 35c-15 19-15 19-16-12zM13520 6372c0-28 3-32 26-32 22 0 25 2 14 15-9 10-9 15-1 15 6 0 11 5 11 11s-6 9-14 6c-7-3-19 0-25 6-8 8-11 3-11-21zM13670 6295c0-3 9-14 20-25s20-15 20-9-6 17-14 25c-15 14-26 18-26 9zM13610 6246c0-33 2-36 31-36h30l-21 30c-31 44-40 45-40 6zM16420 6255c-10-12-10-15 4-15 9 0 16 7 16 15s-2 15-4 15-9-7-16-15zM13700 6147c0-21 5-27 22-27 21 0 21 0 2 23l-21 26c-2 2-3-8-3-22zM15190 5380c0-19 11-26 23-14 8 8-3 34-14 34-5 0-9-9-9-20zM14320 5054c0-21 4-33 10-29 6 3 10 13 10 21s4 13 9 10c5-4 7 3 4 14-9 35-33 24-33-16zM15420 4321c35-20 60-23 60-7 0 12-10 16-37 16-26-1-33-3-23-9zM16586 3957c12-7 19-19 17-27-4-13-3-13 6 0 8 12 15 12 44 2 43-15 47-15 47 3 0 10-10 15-30 15-16 0-30 5-30 10 0 6-17 10-37 10-35-1-36-2-17-13zM16963 3839c9-5 17-17 17-24 0-8 7-15 15-15s15 5 15 11 7 9 15 5c10-4 15 1 15 14 0 17-7 20-47 20-38-1-44-3-30-11z"/></g><g fill="#0079FF" style="transform:none"><path d="M9075 16209a971 971 0 0 1-339-104 789 789 0 0 1-387-457c-56-177-53-97-57-1466l-3-1263-66-107-106-172-78-122c-22-31-39-59-39-62s-13-24-28-48c-37-55-86-133-146-228l-92-147-46-73 27-32a22968 22968 0 0 1 506-542c35-39 139-149 230-245 92-97 179-191 194-208 31-38 41-40 64-15l101 97c47 43 153 145 235 225l241 230 614 585 215 205 264 254c96 93 202 189 235 214a524 524 0 0 0 341 112c162 0 286-52 405-170s295-310 545-595l85-95 185-210 80-90a5923 5923 0 0 0 195-220l34-40c15-19 51-60 80-90a7445 7445 0 0 0 186-210l70-80 70-80a106128 106128 0 0 0 579-655l75-85c28-33 114-132 202-229l160-182c250-284 478-544 484-549l80-90 80-90 70-80 70-80 181-205 160-181a70557 70557 0 0 0 534-604c61-68 273-310 355-405 218-254 413-465 430-465 19 0 20 10 21 373a3549328 3549328 0 0 0 0 6432l-4 745c-2 443 0 697 6 701 15 10-20 200-55 304a796 796 0 0 1-263 391 802 802 0 0 1-365 180c-49 14-430 16-3292 16-1842 0-3238 4-3238 9 0 10-16 10-85-2zM6340 9732c0-5-32-58-71-118l-90-139-112-173-180-280-257-402-67-106-68-107c-12-21-89-142-334-524l-137-216-149-233-145-230a1836 1836 0 0 0-100-154c-7-14-43-70-78-125-97-150-303-472-407-637l-125-197-65-104-59-94-109-173-112-175c-156-241-180-297-173-400 5-79 43-159 103-217 53-52 93-74 170-94 75-20 10222-20 10307 0 80 19 153 62 197 115 53 65 69 107 70 179 0 34 3 67 7 73 17 28-33 141-100 226l-128 173a127302 127302 0 0 1-433 581c-29 39-147 192-159 205-15 16-41 51-128 166-60 79-269 348-328 422-8 10-27 30-42 44s-25 28-23 32-10 25-28 46l-52 65a37949 37949 0 0 1-260 339c-13 19-72 96-130 170l-204 265c-175 228-184 240-196 250-6 6-28 33-48 62l-51 70c-21 25-190 246-290 378-45 61-102 133-127 162-24 28-65 82-91 120-26 37-65 87-86 110-22 23-37 44-35 46s-16 26-40 53a1016 1016 0 0 0-89 119l-59 75c-28 36-58 71-67 78-10 7-17 17-17 22s-29 46-65 91l-78 97c-11 15-23 6-101-73-48-50-135-135-192-190-57-54-207-201-334-325-126-124-360-351-520-505-159-154-409-399-555-546-281-281-331-325-413-363-91-40-166-51-265-37-171 25-160 17-668 525-249 248-552 550-676 671l-576 568c-194 191-355 347-357 347-3 0-5-4-5-8z"/></g><g fill="#006FFF" style="transform:none"><path d="M9103 16212c-33-3-49-32-18-32 8 0 15-5 15-11 0-5 4-7 10-4 5 3 1450 6 3210 6 2849 0 3201 1 3207 15 3 8 3 17 1 19-5 5-6375 12-6425 7zM15600 16187c0-9 5-19 12-23 15-10 86-25 123-27 17-1 36-7 43-14s28-15 47-19c19-3 33-9 30-13-2-4 25-22 61-39 35-18 64-36 64-41s13-14 28-20c16-7 50-36 77-66s55-55 62-55c8 0 11-5 8-10-7-12 12-40 26-40 32 0-26 119-58 120-7 0-13 4-13 9 0 28-203 171-242 171-10 0-18 4-18 8 0 5-19 15-42 22l-86 26c-23 8-60 17-82 20-32 5-40 4-40-9zM8960 16175c0-21 24-29 49-15 32 16 25 30-14 30-25 0-35-4-35-15zM8830 16147c-121-52-190-93-190-116 0-6-8-11-18-11-23 0-118-83-125-110-8-31-2-28 90 58 38 34 132 93 189 117 19 8 34 19 34 25s5 8 10 5c6-4 22 1 36 10 13 9 29 13 34 10 6-3 10-1 10 6s3 9 7 6c7-8 33 11 33 24 0 16-33 8-110-24zM8340 15618c0-7-3-23-6-35-10-38 12-26 23 12 9 29 9 35-3 35-8 0-14-6-14-12zM16320 15501c0-11-3-26-6-34-5-14 20-47 36-47 11 0 10 60-2 83s-28 22-28-2zM16336 15374c-8-20-7-480 1-511 3-13 11-23 19-23 11 0 14 36 16 198l3 257c1 33-1 68-3 78-5 21-28 22-36 1zM16338 14803c-10-41-7-923 4-923 5 0 8-7 4-15-4-10 1-15 16-15 19 0 20 4 14 53-3 28-6 247-6 485 0 361-2 432-14 432-7 0-16-8-18-17zM8290 14560c0-22 5-40 10-40 6 0 10 18 10 40s-4 40-10 40c-5 0-10-18-10-40zM8290 14365c0-50 4-85 10-85s10 35 10 85-4 85-10 85-10-35-10-85zM8290 14200c0-22 5-40 10-40 6 0 10 18 10 40s-4 40-10 40c-5 0-10-18-10-40zM8290 14090c0-27 5-50 10-50 6 0 10 23 10 50 0 28-4 50-10 50-5 0-10-22-10-50zM16336 13757c-7-28-6-1464 1-1494 3-13 11-23 19-23 12 0 14 119 14 770s-2 770-14 770c-8 0-16-10-20-23zM8263 12870c-33-49-40-70-25-70 10 0 55 70 64 98 10 36-5 25-39-28zM10796 12847c-27-7-51-18-54-25-4-13 20-11 82 9 16 5 53 9 82 9 30 0 54 5 54 10 0 13-102 11-164-3zM11130 12831c0-5 21-19 48-31 87-40 113-55 129-72 9-10 22-18 30-18 7 0 13-5 13-12 0-18 51-68 69-68 9 0-10 25-44 60-41 41-88 75-147 105-92 48-98 50-98 36zM10613 12760c-34-22-64-44-68-50-13-21 32-9 65 18 19 15 47 34 63 41 28 15 36 31 15 31-7 0-41-18-75-40zM8175 12733c-35-55-47-83-36-83s51 44 51 57c0 6 6 16 14 22 18 15 27 51 13 51-7 0-25-21-42-47zM10448 12621c-26-21-60-54-75-72-15-19-35-41-45-50s-15-19-11-23c3-3 0-6-9-6-15 0-58-40-58-54 0-21 39 10 149 117 67 65 121 120 121 122 0 15-31 0-72-34zM8085 12587c-14-24-25-50-25-58s-8-19-18-25a893 893 0 0 1-122-195c0-17 37 18 53 50 22 44 41 74 60 95 9 11 17 25 17 31s11 22 25 35 25 30 25 38 9 27 21 43c17 24 18 29 5 29-8 0-27-20-41-43zM11440 12610c0-19 77-97 86-87 3 3-14 27-40 54-27 29-46 42-46 33zM11650 12376c0-17 58-71 67-62 4 4-9 22-30 41-20 19-37 28-37 21zM10157 12336c-31-29-35-36-19-36 22 0 66 43 60 60-2 7-20-4-41-24zM11730 12289c0-17 47-66 56-57 3 4-8 21-25 40-20 22-31 28-31 17zM7858 12226c-32-50-38-80-10-50 15 16 52 80 52 91 0 14-20-4-42-41zM16336 12185c-8-30-7-410 1-442 3-13 11-23 19-23 12 0 14 42 14 245s-2 245-14 245c-8 0-17-11-20-25zM9997 12182c-9-2-15-8-12-13 4-5 0-9-7-9-19 0-92-84-78-88 12-4 128 104 120 111-3 2-13 2-23-1zM11880 12120c0-8 15-31 33-51l193-216c12-13 26-23 33-23 6 0 3 8-6 18a3856 3856 0 0 1-225 257c-18 19-28 25-28 15zM7755 12063c-56-90-64-107-53-120 13-16 32-17 23-3-4 6 12 41 34 79 23 37 41 73 41 79 0 24-16 11-45-35zM9801 11995c-55-44-79-75-58-75 18 0 110 87 105 100-2 5-23-6-47-25zM7790 11863c0-15 86-110 94-102 4 4-16 31-43 60-28 30-50 49-51 42zM9649 11844c-7-9-23-20-36-25s-23-15-23-22-16-21-35-30c-31-15-40-26-36-49 0-5-3-8-9-8-5 0-26-16-46-35-28-27-32-35-17-35 16 0 233 199 233 214 0 12-18 6-31-10zM12170 11794c0-15 111-146 129-152s-11 34-78 108c-28 30-50 50-51 44zM7901 11733c23-30 133-148 146-156 7-4 13-4 13 1 0 13-150 172-162 172-6 0-5-7 3-17zM16336 11673c-6-37-6-746 1-772 3-12 12-21 19-21 12 0 14 68 14 410 0 348-2 410-14 410-8 0-17-12-20-27zM9348 11566c-10-7-15-15-12-19 3-3-3-8-14-11-22-7-72-67-72-86 0-7 28 15 61 47 34 33 60 65 58 71-3 7-10 7-21-2zM8080 11550c0-18 86-107 95-98 3 3-17 30-44 59-30 32-50 48-51 39zM12490 11429c0-16 56-76 65-67 3 2-11 22-30 44-21 25-34 33-35 23zM8200 11421c0-15 309-341 322-341 12 0-3 20-43 61-15 14-78 82-140 150-114 126-139 149-139 130zM9124 11347c-67-52-364-345-364-359 0-15 12-8 59 37l122 118c188 178 239 228 239 232 0 11-17 3-56-28zM12580 11331a1448 1448 0 0 1 201-238c6-18 172-203 182-203 11 0-21 45-90 123l-143 163c-138 158-149 170-150 155zM8591 11010c-1-14 83-110 96-110 8 0 63 61 63 71 0 16-11 10-32-16-11-14-25-25-31-25-7 0-31 21-54 47-23 27-42 41-42 33zM13010 10841c0-13 90-121 102-121 4 0-1 15-12 33-24 40-90 105-90 88zM16339 10773c0-38-2-104-4-148-3-94 2-125 21-125 10 0 14 15 14 58 0 31 3 108 7 170 6 110 6 112-15 112-20 0-22-5-23-67zM13140 10693c0-7 21-37 48-66l102-118 145-164 170-190 85-95 64-75 110-125 104-115c28-32 52-53 52-46s-30 47-67 89c-198 228-262 300-298 337-22 22-60 65-85 95-25 29-71 81-102 114-31 34-71 80-87 104-17 23-35 42-39 42-5 0-23 19-40 43-47 64-161 184-162 170zM16337 10458c-7-27-6-745 1-770 2-10 11-18 18-18 12 0 14 67 14 405 0 339-2 405-14 405-8 0-16-10-19-22zM6309 9674l-56-90c-28-43-30-63-3-39 11 10 20 24 20 31s11 21 23 31c13 10 29 35 36 56 7 20 17 39 22 42 11 8 12 25 0 25-5 0-24-25-42-56zM6387 9671c-3-14 1-20 19-24 29-5 31 4 5 27-17 16-19 16-24-3zM14040 9670c0-8 18-33 39-55 22-22 73-78 113-125s88-102 107-122l48-58c8-11 21-20 29-20 18 0 10 10-145 184-172 193-191 212-191 196zM11044 9593c4-9 1-20-5-24-8-5-2-20 22-51 19-23 39-52 45-63s19-22 30-25c10-3 19-11 19-19s12-18 28-22c18-5 27-3 27 5 0 12-157 216-167 216-3 0-2-8 1-17zM16336 9585c-8-33 3-75 20-75 10 0 14 14 14 50 0 55-23 71-34 25zM6540 9525c6-8 9-19 5-25-3-5 2-10 11-10 10 0 31-12 46-27s28-22 28-16c0 14-77 93-91 93-8 0-8-4 1-15zM6174 9463c-42-66-50-83-37-83 10 0 70 88 85 123 16 38-14 14-48-40zM10768 9458a1386 1386 0 0 1-185-185c14-13 52 16 141 108 81 84 108 119 93 119l-49-42zM16337 9443c-7-42-8-354-1-385 3-16 12-28 20-28 12 0 14 37 14 220s-2 220-14 220c-8 0-17-12-19-27zM6665 9391c1-21 23-51 36-51s11 44-3 58c-18 18-35 14-33-7zM11216 9354c-8-22-8-24 9-24 9 0 12-6 8-16s1-17 16-21c11-3 18-9 15-14s0-9 5-9c6 0 10-3 9-7-5-16 43-85 62-90 11-3 18-9 15-13-3-5-1-11 5-15s10 6 10 23c0 25-38 87-85 138l-29 38c-22 30-31 32-40 10zM6088 9333c-9-10-26-37-38-60s-28-47-36-54c-8-6-14-16-14-20 0-5-25-46-55-92-30-45-55-87-55-94 0-22 16-14 31 15a1754 1754 0 0 1 94 147c37 61 76 121 86 134 31 39 19 60-13 24zM6790 9244l134-133c28-25 76-72 107-103 32-32 65-58 75-58 9 0 14-3 11-7-12-11 35-53 60-53 13 0 23 3 23 6 0 12-164 164-177 164-7 0-13 5-13 12s-55 68-122 135c-102 102-128 123-153 123-29 0-27-3 55-86zM10440 9142a786 786 0 0 1-118-127c10-11 38 9 51 36 7 13 22 28 35 34 12 5 22 15 22 22s5 12 12 11c6-2 17 8 24 21s26 30 43 39c17 8 31 18 31 23 0 4 7 15 16 23 8 9 14 21 12 28-2 6-60-43-128-110zM14430 9229c0-11 59-81 152-181l82-92c39-46 65-58 30-13-50 63-255 297-261 297-1 0-3-5-3-11zM11377 9110c3-10 14-22 24-25 11-4 17-10 14-15-10-16 24-33 47-23 20 9 20 10-12 46-36 41-82 52-73 17zM11463 9020c1-12 21-41 44-65 23-25 40-45 38-45-8 0 22-52 45-79 13-15 27-21 39-18 23 6 38-22 19-35-9-5-6-8 10-8 19 0 22-4 17-20-5-14-2-20 10-20 9 0 13-5 10-11-8-12 23-49 42-49 27 0 11 38-55 121l-130 168c-61 80-92 101-89 61zM16337 8993c-4-25-4-42 1-105 1-10 9-18 17-18 12 0 15 15 15 75 0 58-3 75-14 75-8 0-17-12-19-27z"/><path d="M5845 8953c-14-21-25-46-25-57 0-20 0-20 18 0 10 10 27 36 39 57 30 51 3 51-32 0zM10197 8902c-10-10-17-21-17-25 0-9 34 5 42 17 20 29-1 35-25 8zM14740 8881c0-15 128-161 142-161 12 0-6 24-79 106-35 38-63 63-63 55zM7195 8860c-4-6 8-25 27-42l33-31 3 27c2 15-2 34-9 42-13 16-45 19-54 4zM10018 8730a944 944 0 0 1-122-130c6 0 19 9 29 20s20 18 23 15c8-8 42 26 42 42 0 8 4 12 9 9 9-6 61 41 61 55 0 10 36 47 73 74 28 20 43 45 27 45-5 0-69-58-142-130zM5752 8805c-25-56-11-52 37 8 12 15 11 17-6 17-11 0-25-11-31-25zM16336 8804c-9-36 2-84 20-84 10 0 14 14 14 55 0 40-4 55-14 55-8 0-17-12-20-26zM7336 8707c27-29 64-63 82-75l32-22v23c0 34-98 127-134 127h-29l49-53zM5666 8673c-20-32-36-61-36-65 0-21 19-2 58 57 28 43 37 65 28 65-8 0-31-26-50-57zM16336 8658c-15-56-3-138 20-138 11 0 14 19 14 80s-3 80-14 80c-7 0-16-10-20-22zM14930 8662c0-19 75-95 89-91 6 2-10 26-39 54-27 27-50 44-50 37zM11766 8634c-7-19 21-64 42-64 8 0 12-3 9-6-11-11 55-94 74-94 21 0 38-22 21-28-16-5 15-52 35-52 8 0 11-4 8-10-3-5 4-20 17-33s24-26 24-31c4-18 57-76 71-76 9 0 13-6 10-14-7-17 25-65 53-80 13-6 22-15 22-21 0-5 8-13 20-18 13-5 18-13 14-24-7-18 20-53 41-53 8 0 11-5 8-10-9-15 14-40 36-40 10 0 23-8 28-17 6-10 11-13 11-5 0 22-44 82-61 82-10 0-19 11-22 29-3 16-21 44-39 64-18 19-39 45-47 58-24 39-154 199-163 199-4 0-8 6-8 13 0 20-175 247-190 247-4 0-11-7-14-16zM7491 8563c34-41 115-113 128-113 8 0 11-3 8-7-12-11 45-63 70-63 13 0 23 2 23 5 0 7-110 115-116 115-2 0-20 18-40 40-24 26-45 40-61 40-23 0-24-2-12-17zM15030 8553c0-16 56-80 64-72 3 3-10 23-29 45-19 21-34 33-35 27zM5545 8479c-30-57 1-45 36 14 7 13 6 17-5 17-9 0-23-14-31-31zM9660 8385c-35-35-61-68-56-72 4-4 11-1 16 7 6 8 10 11 10 5 0-5 21 13 46 40l61 68c14 14 14 17 2 17-8 0-43-29-79-65zM15131 8440c0-8 16-34 37-56l79-90c102-117 142-159 148-153 3 4-40 60-97 125-157 179-167 190-167 174z"/><path d="M5487 8391c-55-82-107-172-107-182 0-20 30 12 51 53 11 21 29 48 39 58 11 11 20 25 20 31s12 26 26 45c19 25 22 34 12 34-9 0-27-18-41-39zM16339 8348c-8-90-4-118 17-118 17 0 28 59 19 99-6 30-34 44-36 19zM7860 8195c57-58 111-105 119-105s11-3 8-7c-8-7 31-53 45-53 4 0 8 9 8 20 0 12-46 66-114 135-90 91-120 115-142 115-25 0-18-9 76-105zM9497 8222c-20-22-23-39-4-23 8 6 16 8 19 6 3-3 8 3 11 15 6 25-5 26-26 2zM5300 8098c-22-34-40-68-40-75 0-27 19-11 41 34 12 25 31 55 41 65 20 20 24 38 8 38-5 0-28-28-50-62zM9382 8115c-27-27-41-49-36-56 5-9 11-7 21 6 7 11 13 15 13 10 0-4 11 5 25 21s25 37 25 47c0 22 3 23-48-28zM9272 8007c-29-29-42-57-26-57 9 0 67 51 82 71 23 33-19 22-56-14zM15490 8033c0-11 63-88 201-243l83-95c18-21 25-25 26-14 0 9-57 81-126 160-153 175-184 207-184 192zM8061 7995l99-101c80-80 96-92 98-74 5 30-142 180-177 180-13 0-22-2-20-5zM16335 7960c-9-40 3-90 21-90 10 0 14 15 14 60s-4 60-14 60c-8 0-17-13-21-30zM5185 7915c-19-31-35-60-35-67 0-18 38 22 70 74 43 70 11 64-35-7zM12317 7921c-6-26 48-101 73-101 22 0 39-22 21-28-17-6 16-42 38-42 14 0 14-2 1-10-12-8-10-10 8-10 19 0 22-4 17-20-5-14-2-20 10-20 9 0 13-4 10-10-3-5 2-10 12-10 15 0 16-2 3-10s-12-10 3-10c10 0 15-4 12-10-3-5 1-10 9-10 28 0 17 30-38 103-126 167-158 207-166 207-4 0-10-9-13-19zM16345 7841c3-5 1-12-4-15-13-9-1-46 15-46 9 0 14 12 14 35 0 25-4 35-16 35-8 0-13-4-9-9zM9042 7769a529 529 0 0 0-242-134c-38-7-56-16-58-28-4-18 32-25 42-8 4 5 24 12 46 16s40 11 40 17 7 7 15 4c9-3 18 1 21 9 4 8 10 12 15 9s9 0 9 5c0 6 3 10 8 9 19-5 52 16 87 57 21 25 44 45 51 45s19 14 28 30c8 17 11 30 8 30-4 0-36-27-70-61zM5060 7723c-47-74-60-103-42-103 7 0 72 95 72 106 0 3 9 17 20 31 22 28 25 43 10 43-5 0-32-35-60-77zM8301 7753c29-35 93-89 128-106 68-35 145-58 173-51 17 3 28 1 28-5 0-16 52-13 74 4 11 8 18 16 15 18-2 2-43 9-90 15-92 11-161 38-220 84-20 15-41 28-47 28-5 0-12 7-16 15-3 8-17 15-32 15-24 0-25-2-13-17zM15841 7629c4-14 33-49 176-209 17-19 34-32 37-29 4 4-7 21-24 39-16 17-52 60-79 93-61 77-114 128-110 106z"/><path d="M4972 7580c-12-16-22-37-22-46 0-16 2-16 18 2 9 10 25 31 35 47 25 38-2 37-31-3zM12560 7590c8-5 15-14 15-20s6-14 13-19c8-5 13-12 11-17-1-5 8-14 20-20 11-6 18-13 15-17-9-8 35-67 50-67 7 0 13-6 13-13 0-21 34-67 50-67 8 0 12-4 8-9-3-5-1-12 5-16s10 6 10 23c0 21-14 48-46 86-25 31-49 56-55 56-5 0-9 7-9 16 0 29-61 94-89 94-20 0-23-2-11-10zM4836 7365c-9-13-16-29-16-35 0-19 15-10 38 25 16 26 19 35 8 35-7 0-21-11-30-25zM16336 7355c-8-33 3-75 20-75 10 0 14 14 14 50 0 55-23 71-34 25zM12803 7283c11-3 16-11 13-19s1-14 10-14c8 0 12-4 9-10-3-5 2-10 12-10 15 0 16-2 3-11-12-9-11-10 8-6 15 3 22 0 22-9 0-8-6-14-12-14-7 0 1-13 17-28 17-15 30-36 30-47 0-13 8-21 23-23 12-2 20-8 17-13-4-5 0-9 8-9 9 0 15-10 15-25 0-30 78-122 105-124 11-1 17-7 15-17-3-17 27-43 37-32 11 11-3 41-37 80-18 20-49 57-68 82-19 26-41 46-47 46-7 0-13 9-13 20 0 10-19 43-43 72-23 29-53 68-65 86-17 23-31 32-50 31-18-1-21-3-9-6zM4756 7245c-9-13-16-29-16-35 0-21 24-4 42 28 14 25 15 32 4 32-8 0-21-11-30-25zM16338 7228c-3-13-4-49-3-80 2-32 0-58-4-58-3 1-23 23-44 50-21 28-43 50-48 50-18 0-8-19 26-49 19-17 35-34 35-39 0-12 44-52 57-52 15 0 27 108 18 160-7 43-30 54-37 18zM4686 7134c-9-8-16-19-16-24s-6-15-14-22c-18-19-49-79-43-85 6-5 91 105 100 130 8 21-6 22-27 1zM4550 6918c-22-33-40-66-40-72 1-17 59 54 80 97 29 58 4 43-40-25zM4456 6775c-9-13-16-29-16-35 0-19 15-10 38 25 16 26 19 35 8 35-7 0-21-11-30-25zM13217 6751c-3-14 2-20 19-24 26-5 32 11 12 31-17 17-25 15-31-7zM4406 6698c-9-12-16-28-16-35 0-24 18-13 39 22 16 27 17 35 6 35-8 0-21-10-29-22zM13275 6676c4-33 13-46 32-46 9 0 13-6 9-15-4-11 3-19 20-25 14-6 22-14 19-20-3-5-1-10 4-10 23 0 9 47-26 92-42 52-62 60-58 24z"/><path d="M4337 6588c-86-133-127-199-127-207 0-4-8-15-17-24-10-9-29-37-43-64-14-26-27-50-30-53-19-17-50-71-50-87 1-14 7-11 30 17 17 19 30 42 30 52s4 18 9 18c8 0 54 66 86 125 25 44 99 161 115 180 9 11 26 37 38 58 34 59-1 47-41-15zM13385 6530c-3-5-1-10 5-10s8-5 5-10c-3-6 1-13 9-16 9-3 14-10 11-14-3-5 1-12 9-17 8-4 14-10 13-13-2-12 37-60 49-60 8 0 13-3 13-7-4-22 3-33 20-33 11 0 18-7 17-17 0-10 9-19 23-23 25-6 42-30 22-30-7 0-5-10 5-25 9-14 24-25 34-25s21-6 23-12c4-8 6-7 6 4 1 15-52 88-183 256-48 60-68 73-81 52zM13663 6189c-17-17 12-69 38-69 11 0 19-6 18-12-3-28 2-38 20-38 11 0 22-6 24-12 3-8 6-5 6 6 1 16-77 134-89 135-4 1-11-4-17-10zM4012 6078c-14-19-25-58-15-58 8 0 43 52 43 64 0 11-17 6-28-6zM3942 5968c-7-7-12-16-12-21s-9-20-20-34a95 95 0 0 1-20-39c0-29 18-12 49 46 30 56 31 76 3 48zM13834 5938c1-17 8-24 29-26 26-3 40-32 16-32-18 0 11-30 30-31 9 0 11-3 4-5-19-8-3-34 21-35 11 0 15-3 8-6-16-6 22-61 52-73 14-6 16-9 6-10-8-1-4-5 10-9 19-5 25-14 25-35 1-17 10-36 24-47 13-11 20-19 16-19-3 0 3-13 15-30 12-16 29-30 38-30 15 0 15-2 2-10-12-8-12-10 5-10 22 0 49-35 40-50-4-6 2-10 13-10 10 0 24-11 30-25 10-22 32-35 32-19 0 3-21 34-47 70l-118 160c-220 302-254 340-251 282zM3792 5724c-15-25-48-78-74-117-49-75-65-119-28-79 42 45 160 242 144 242-8 0-27-21-42-46zM3607 5431c-31-56-34-73-9-45 24 27 52 71 52 84 0 23-18 7-43-39zM14316 5228c-3-18-5-58-3-88 1-41 6-55 18-58 24-4 28 17 22 102-4 53-10 76-19 76-7 0-15-15-18-32zM3506 5218c-19-73 13-196 67-255 35-39 38-25 6 25-53 83-68 170-42 238 3 8-1 14-10 14-8 0-17-10-21-22zM14240 4940c-6-11-15-20-21-20-5 0-19-9-31-20-24-22-10-27 24-9 23 12 68 55 68 64 0 14-31 3-40-15zM3630 4905c14-17 108-65 127-65 7 0 13 5 13 10 0 6-5 10-11 10-16 0-97 39-104 50-3 5-13 10-22 10-12 0-13-3-3-15zM14029 4846c-2-3-37-6-77-7-39-1-72-6-72-11 0-15 154-9 176 7 19 14 19 14-2 15-11 0-23-2-25-4zM3840 4830c0-6 27-10 60-10s60 4 60 10-27 10-60 10-60-4-60-10zM4000 4831c0-7 26-11 65-11 36 0 65 4 65 8 0 5-29 10-65 11-40 1-65-2-65-8zM4280 4830c0-5 18-10 41-10 24 0 38 4 34 10-3 6-22 10-41 10s-34-4-34-10zM5080 4830c0-5 20-10 45-10 59 0 59 16 0 19-26 1-45-2-45-9zM5480 4829c0-5 34-9 75-9 46 0 75 4 75 11 0 6-28 9-75 8-41-1-75-6-75-10zM6050 4830c0-5 23-10 50-10 28 0 50 5 50 10 0 6-22 10-50 10-27 0-50-4-50-10zM7470 4830c0-5 18-10 40-10s40 5 40 10c0 6-18 10-40 10s-40-4-40-10zM8110 4829c0-5 66-9 160-9 100 0 160 4 160 10s-60 10-160 9c-93 0-160-4-160-10zM8800 4830c0-5 20-10 45-10s45 5 45 10c0 6-20 10-45 10s-45-4-45-10zM8900 4830c0-5 20-10 45-10s45 5 45 10c0 6-20 10-45 10s-45-4-45-10zM9040 4830c0-5 20-10 45-10s45 4 45 8c0 5-20 9-45 11-26 1-45-2-45-9zM9410 4831c0-7 25-11 60-11 33 0 60 4 60 8 0 5-27 10-60 11-37 1-60-2-60-8zM9620 4830c0-5 16-10 35-10s35 5 35 10c0 6-16 10-35 10s-35-4-35-10zM9740 4830c0-6 27-10 60-10s60 4 60 10-27 10-60 10-60-4-60-10zM10210 4830c0-6 27-10 60-10s60 4 60 10-27 10-60 10-60-4-60-10zM12020 4828c0-4 16-8 35-8s35 4 35 8c0 5-16 9-35 9s-35-4-35-9zM12520 4830c0-5 16-10 35-10s35 5 35 10c0 6-16 10-35 10s-35-4-35-10zM12920 4830c0-5 20-10 45-10s45 5 45 10c0 6-20 10-45 10s-45-4-45-10zM13280 4829c0-5 114-9 260-9 163 0 260 4 260 10s-96 9-260 9c-145-1-260-5-260-10z"/></g><g fill="#06F" style="transform:none"><path d="M9065 16207c-228-30-458-151-570-300-20-27-34-54-32-60s12 2 23 17c48 70 148 152 254 208l60 33c8 5 24 11 34 12 11 2 25 8 31 13s20 11 31 13c10 1 25 6 32 11 7 4 23 5 35 2 13-3 36 1 52 10 16 8 51 14 79 13s1459-2 3181-2 3153-1 3180-2c63-4 135 5 135 16 0 4-19 12-42 17-57 13-6388 12-6483-1zM15610 16179c0-15 5-19 15-15 8 3 15 1 15-5 0-7 12-9 30-7 16 2 31 0 33-5 1-5 17-10 35-11 18 0 32-5 32-10 0-4 11-5 25-2 18 5 25 2 25-9 0-8 9-15 20-15s20-4 20-8c0-9 89-52 109-52 7 0 10-4 7-9-7-11 37-41 59-41 9 0 14-4 11-9-4-5 18-31 48-58 30-26 55-52 56-58 4-22 22-45 35-45 8 0 19-8 24-17 9-16 10-16 11 3 0 12-10 34-22 50l-38 48a902 902 0 0 1-415 266c-22 9-107 30-124 30-6 0-11-9-11-21zM8380 15719c-21-41-21-57-1-44 6 3 11 14 11 23 0 10 7 28 16 40 8 12 10 22 5 22-6 0-20-18-31-41zM8345 15625l-11-32c-16-48-21-113-9-113 8 0 17 25 22 63 6 34 14 70 18 80s3 17-4 17-14-7-16-15zM16317 15480c-3-11-1-20 4-20 4 0 6-7 3-15-4-8-1-15 5-15 7 0 11-18 10-47v-4172c1-2268 0-4125-1-4126-3-2-75 73-79 83-2 7-28 35-219 247-40 44-84 97-98 118-13 20-31 37-39 37-16 0-3-17 101-135 61-68 247-281 334-381l42-49v4155c0 3822-1 4162-17 4247-16 90-34 119-46 73zM8306 15423c-9-56-7-99 3-87 13 13 24 124 13 124-5 0-12-17-16-37zM8296 15254c-10-26-7-104 4-104 6 0 10 27 10 60 0 62-3 72-14 44zM8290 14220c0-815 1-900 16-900 13 0 15 9 9 63-3 34-6 439-6 900 0 508-4 837-10 837-5 0-9-353-9-900zM8290 12939c0-20-13-49-35-80-19-27-35-51-35-54 0-5-54-92-92-147-10-15-18-32-18-38 0-23 20-7 46 38l39 64 39 65c16 26 38 58 49 71 11 12 18 22 14 22-3 0 1 16 9 35 18 44 18 55-1 55-10 0-15-10-15-31zM10830 12849l-65-12a819 819 0 0 1-316-223c-75-70-104-104-88-104 8 0 57 42 110 93 150 145 222 194 334 223 107 29 303 12 389-33l61-31c17-8 40-24 52-35 13-11 26-17 30-13 11 11-32 41-135 92-92 46-93 46-210 49-64 1-137-1-162-6zM8079 12578c-7-13-54-90-106-171-98-153-115-186-95-173 13 8 112 151 112 161 0 3 19 32 43 66 42 61 76 118 77 132 1 16-20 6-31-15zM11501 12533l29-33 144-160c76-85 146-162 155-170s42-48 75-88c32-39 65-72 73-72s0 15-22 39c-20 22-47 53-59 69-20 28-83 98-190 212-23 25-69 76-101 115-72 83-104 115-118 115-6 0 0-12 14-27zM10216 12388c-149-137-257-248-242-248 16 0 186 162 186 179 0 6 7 11 15 11 20 0 129 104 124 119-3 8-35-16-83-61zM7794 12123l-81-133-22-35 56-58c31-32 58-55 61-52s-15 27-41 53-47 51-47 55 12 26 27 50l39 62 39 70c15 28 34 58 43 68 14 15 14 17 0 17-9 0-41-42-74-97zM9789 11981c-27-25-38-40-28-41 17 0 86 66 77 75-3 3-25-13-49-34zM12130 11834c0-3 39-50 88-105l136-157 90-102c23-25 84-93 135-152 52-60 98-108 103-108s3 9-4 19c-15 21-254 292-353 401-81 88-158 179-168 196-8 14-27 20-27 8zM9584 11785c-27-24-52-45-55-45-9 0-19-40-10-40 12 0 41 35 41 48 0 7 7 12 15 12 16 0 38 18 64 53 25 33-6 17-55-28zM7901 11733c42-45 61-62 72-63 5 0-13 23-39 50-26 28-52 50-58 50-5 0 6-17 25-37zM9401 11613l-111-106c-28-26-38-47-24-47 3 0 28 21 56 48 152 141 191 182 176 182-9 0-53-35-97-77zM8002 11623l71-78c25-27 49-47 52-43 8 7-123 148-138 148-6 0 1-12 15-27zM8150 11474c1-15 118-136 128-133 11 4-23 43-92 108-20 19-36 31-36 25z"/><path d="M8360 11240c40-44 77-80 82-80 13 0-3 21-78 98-87 89-89 77-4-18zM8938 11170c-34-33-56-59-48-60 8 0 44 27 80 60 38 35 58 60 48 60-9 0-45-27-80-60zM12730 11154c0-7 86-110 147-174l80-91c73-88 215-244 227-248 16-6-52 76-194 234a2456 2456 0 0 0-190 223c-16 26-70 70-70 56zM8500 11094l70-74 63-68c51-56 61-61 71-36 9 24 7 28-9 14-12-10-19-6-42 21-16 18-34 40-40 50-19 26-143 143-156 148-7 2 13-22 43-55zM13202 10613c45-54 243-280 254-292 8-8 16-12 19-10 5 6-50 73-148 180-29 32-67 75-85 98s-38 41-44 41c-7 0-5-7 4-17zM13492 10293c7-29 515-596 538-601 8-2-2 14-22 35-41 43-68 73-148 163l-70 78-42 50c-15 18-65 75-111 125l-116 127c-18 19-31 29-29 23zM6302 9668a885 885 0 0 0-72-120c-59-89-68-108-52-108 8 0 42 54 81 128 8 15 20 31 28 35 12 7 43 59 43 72 0 9-16 5-28-7zM11030 9613c0-6 5-15 11-18 6-4 8-13 5-21s-1-14 5-14 7-4 4-10c-3-5 2-10 12-11 11 0 13-2 5-6-10-4-9-9 4-24 9-10 23-19 30-19s10-8 7-20c-4-14 1-21 22-26 16-4 24-12 21-20-3-7 10-21 31-34 23-14 33-26 29-36-3-8 1-17 9-20 8-4 13-10 10-15-3-4 4-13 15-19s18-15 15-19c-3-5 2-12 11-15 8-3 13-10 9-15-3-5 12-28 33-50 21-23 37-43 34-46-3-2 3-7 12-11 9-3 13-10 10-15s7-21 23-36c15-16 27-32 25-36-1-4 6-11 15-14 17-6 57-50 58-63 1-3 15-20 33-38 17-19 30-38 29-44s13-19 31-29c19-11 32-14 32-8 0 22-105 149-122 149-12 0-18 8-18 24 0 14-6 31-13 38-19 19-169 214-195 254-12 19-31 40-42 46-11 7-20 17-20 21 0 21-179 240-180 220zM14090 9615c0-11 133-166 137-161 5 5-116 160-128 164-5 2-9 1-9-3zM10848 9534l-63-65-69-62c-32-29-57-59-55-66 5-14 44 20 89 76 14 18 29 32 34 33 11 0 126 120 126 131 0 16-7 10-62-47zM14250 9433c0-5 26-38 58-74l140-162c45-53 86-97 90-99s30-30 57-63c60-71 96-108 101-103 2 2-9 18-24 34l-72 84c-25 30-61 71-81 92s-48 53-61 70c-14 18-47 57-74 86s-65 72-84 97c-33 41-50 54-50 38zM6671 9395c3-32 54-95 77-95 7 0 10-4 7-10-3-5-2-10 4-10 5 0 16-3 25-6 35-13 13 24-50 86-64 63-66 64-63 35zM6099 9348c-46-61-58-88-39-88 6 0 10 7 10 15s4 15 9 15c8 0 61 74 61 85 0 14-19 2-41-27zM10546 9245c-44-42-77-78-73-81 3-3 15 4 26 15a594 594 0 0 1 94 80c89 88 47 75-47-14zM5965 9138c-72-109-84-133-67-127 9 4 152 213 152 224 0 22-29-11-85-97zM6840 9210c0-5 5-10 12-10 6 0 8-3 5-7-8-7 21-43 35-43 5 0 50-43 100-96 63-65 97-94 109-91 16 4 28-14 33-48 0-5 11-14 23-21 13-6 20-14 16-17-3-4 1-7 11-7 9 0 15-4 12-9-3-4 67-77 157-162 89-85 180-174 203-198 26-28 47-42 57-38 8 3 21 0 28-6 71-62-230 239-546 546a885 885 0 0 1-147 127c-10 0-18 8-18 17 0 23-49 73-72 73-10 0-18-4-18-10zM10187 8893c-119-118-217-216-217-218 0-12 60 29 65 44 5 17 99 111 111 111s269 268 263 275c-2 2-102-93-222-212zM5835 8938c-84-132-106-171-100-176 3-4 17 7 31 23 29 35 124 193 124 206 0 22-18 5-55-53zM14722 8901c5-18 90-120 101-120 11-1-21 43-68 94-20 22-35 34-33 26zM11660 8790c0-11 5-20 11-20s9-6 6-14 1-17 9-20c9-3 13-10 9-15-3-6 1-13 9-18 8-4 15-12 15-17s10-14 23-20c13-7 22-20 22-29-1-9 2-17 8-17 5 0 7-4 3-9-3-6 8-20 24-32 17-12 28-26 25-30-2-4 4-14 14-21 11-7 19-17 19-23 0-5 10-15 22-21 32-16 40-26 44-53 2-13 11-29 20-36s14-15 10-18c-3-4 2-9 11-13 9-3 14-10 11-14s6-15 20-24 24-20 22-24c-1-5 15-25 36-45 22-20 36-40 33-45-7-12 62-84 76-80 5 2 10 7 10 12 1 15-66 96-79 96-7 0-13 7-13 17 0 9-28 53-62 97l-112 146-144 188c-51 67-95 122-98 122-2 0-4-9-4-20zM14852 8753c4-18 110-143 121-143 4 0-1 13-12 29a537 537 0 0 1-109 114zM5644 8638a1919 1919 0 0 1-84-138c-6-5-70-103-124-187-26-43-27-55 0-29 7 8 38 52 69 98 30 45 64 94 75 108s29 44 41 68c11 23 41 72 65 108 48 71 49 74 34 74-6 0-40-46-76-102zM9867 8581c-34-33-59-62-57-65 6-5 68 50 109 97 44 49 11 29-52-32zM15010 8572c0-14 113-137 129-141 9-2-7 21-35 51-28 29-56 64-63 76-11 21-31 30-31 14zM9635 8360c-54-54-97-102-94-104 5-6 209 188 209 198 0 17-24-3-115-94z"/><path d="M7657 8421c-5-21 48-81 72-81 7 0 10-4 7-9-5-8 33-46 70-68 10-6 18-16 17-22-2-6 3-11 9-11 13 0 82-71 84-86 1-5 11-14 23-20 32-16 71-56 65-65-3-5 10-18 28-29s30-20 26-20c-3 0 60-67 140-150 81-82 152-150 159-150 6 0 14-7 17-15 3-9 21-22 40-30s37-19 41-25c9-15 130-49 154-43 38 10 23 30-26 38-27 4-52 10-58 15-5 4-23 10-39 14-48 12-151 103-378 335-134 137-222 219-230 215-7-4-8-3-4 5 5 8-31 50-99 117-59 57-108 104-110 104-1 0-5-9-8-19zM15182 8368c18-23 62-74 98-113l103-114c21-23 43-41 48-39 6 2-17 32-50 66a567 567 0 0 0-75 86c-7 6-41 44-75 84-66 76-106 101-49 30zM5371 8206c-23-37-25-46-12-46 8 0 51 64 51 76 0 15-22-1-39-30zM5303 8103l-112-178-130-203-123-193c-43-65-78-123-78-129 0-24 23-7 48 36l76 122 146 232c29 47 57 87 61 90 8 6 29 41 88 145 22 39 43 75 48 80 36 44 36 45 21 45-8 0-28-21-45-47zM9188 7917c-161-161-226-218-265-237-29-14-53-28-53-32 0-15 31-8 52 11 11 11 25 18 32 15 13-5 56 31 56 48 0 6 2 9 5 6 7-7 185 167 185 181 0 6 6 11 13 11 15 0 51 38 60 63 4 10 11 16 16 13 10-6 91 78 91 94 0 6 4 9 9 6 4-3 16 3 26 14 16 18 16 20 2 20-9 0-112-96-229-213zM12185 8093c2-29 25-63 41-63 8 0 12-4 9-10-3-5 1-10 9-10 9 0 16-4 16-9s7-11 15-15c23-9 18 16-11 49-15 17-33 40-41 53-18 26-40 29-38 5zM15452 8071c2-5 24-33 50-63l207-238c89-102 167-187 173-189 19-6-24 46-208 254-97 110-183 210-191 223-15 21-38 31-31 13zM12322 7923c1-16 11-35 20-44 10-9 18-21 18-26 0-13 48-35 54-25 5 8-80 122-91 122-2 0-3-12-1-27zM12420 7802c0-12 5-22 11-22s9-7 5-15c-3-10 1-15 13-15 19 0 35-25 26-40-3-4 2-11 11-14 8-3 12-10 9-16-3-5 1-10 9-10 15 0 20-10 14-26-2-4 8-11 21-15 13-5 21-15 18-22-3-8 4-19 15-26s18-15 15-18 7-16 23-30c16-13 27-30 24-37s10-26 28-41 33-33 33-39 11-16 25-23 19-13 10-13c-11-1-9-6 7-19 12-10 19-21 16-24-3-4 7-11 22-17 18-7 25-15 21-25-3-9 0-15 8-15 13 0 31-27 28-42-1-5 7-8 17-8 24 0 30-9 33-46 2-18 13-33 33-46 16-10 23-18 15-18-11-1-9-6 7-19 12-10 19-21 16-25-4-3 1-6 10-6 11 0 17-8 17-23 0-25 28-57 48-57 11 0 16-13 13-32 0-4 11-15 27-25 32-21 43-34 36-45-3-5 3-11 13-15 10-3 26-13 36-21 9-8 17-11 17-5 0 5-8 19-17 31-10 11-25 30-33 42-8 13-22 30-31 39l-32 41c-9 14-46 63-82 110-131 168-270 351-294 385-13 19-30 35-38 35-7 0-13 6-13 14 0 15-142 209-186 256l-24 25v-23zM8738 7623c-24-6-23-20 2-28 21-7 60 10 60 25 0 10-31 11-62 3zM4801 7314c-26-43-18-60 10-24 35 44 41 60 25 60-8 0-24-16-35-36zM4722 7190c-12-16-22-32-22-35s-5-11-10-18c-6-7-25-34-42-62l-205-320c-114-178-128-203-120-211 7-7 37 20 37 34 0 5 9 20 19 33 20 26 48 71 80 130 11 19 27 41 35 48 9 8 16 19 16 26 0 8 16 34 35 59 19 26 35 51 35 56 0 9 23 45 131 200 61 88 62 90 46 90-7 0-23-13-35-30zM13260 6722c0-7 7-24 16-37 9-14 14-25 11-25-2 0 13-19 34-41 21-23 37-45 34-49s5-10 16-13c14-4 20-11 16-21-3-8 1-17 10-20 9-4 13-9 9-13-3-3 3-13 14-20 11-8 19-20 18-26-3-15 40-61 65-70 10-4 16-11 13-16s1-12 10-15c8-3 12-10 9-16-3-5 1-10 9-10 9 0 16-4 16-10 0-5 5-10 10-10 22 0 5 28-96 158-168 218-214 272-214 254zM4275 6490c-17-34-18-40-6-40 5 0 18 16 30 35 16 28 17 35 6 35-8 0-21-13-30-30zM4185 6349c-68-110-123-196-157-247-15-24-28-45-28-48 0-2-15-26-32-52l-45-67c-37-63-174-280-213-340-26-38-49-78-53-87-11-30 10-20 32 15l61 92c22 33 43 67 47 75 3 8 16 28 27 45 32 45 116 189 116 198 0 4 12 20 26 35s32 41 41 57c9 17 47 76 84 131 38 56 69 105 69 108 0 7 40 67 51 76 3 3 12 20 20 38 8 17 18 32 22 32 5 0 5 5 2 10-11 19-20 10-70-71zM13596 6289c4-6 0-15-7-20-10-6-9-10 6-15 27-10 65-55 62-74-1-9 7-16 21-18 18-3 23-8 19-23-3-12 0-19 9-19 13 0 18-12 15-32 0-5 3-8 9-8 16 0 51-44 46-57-3-7 1-13 8-13 19 0 47-34 49-59 1-11 7-21 14-21s13-4 13-10c0-5 6-10 14-10 15 0 29-27 21-39-2-5 7-13 20-19 27-13 32-27 13-35-7-3-2-6 11-6 18-1 22-5 18-20-6-26 19-61 44-61 10 0 19-5 19-12 0-6 3-9 6-5 7 7-48 97-81 133-11 12-28 33-37 46-98 136-125 172-166 226l-84 110c-21 26-38 50-38 53 0 4-7 10-16 13-9 4-13 2-8-5zM14059 5668c-3-26 3-43 17-51 8-5 12-12 9-17s4-15 15-23c11-7 17-17 13-20-3-4 1-7 11-7 9 0 14-4 11-10-3-5 1-10 9-10 26 0 18 23-29 88-47 64-54 71-56 50zM3605 5429c-49-82-95-173-95-186 0-7 6-13 14-13s17 15 21 38c7 41 42 107 87 163 31 41 34 49 16 49-7 0-26-23-43-51zM14234 5410c0-11 4-20 9-20 4 0 5-4 2-10-3-5 0-10 8-10 22 0 50-37 44-60-3-11-1-20 5-20 5 0 6-4 3-10-3-5-1-10 5-10 13 0 12-208-2-216-4-3-6-10-3-15 4-5 1-9-5-9s-8-4-5-10c3-5 1-10-5-10s-9-4-5-9c3-5 1-12-5-16-5-3-10-13-10-22 0-26 38 14 61 65 48 104 34 240-34 336-46 65-63 77-63 46zM3500 5168c0-88 37-172 102-235 71-68 163-107 268-112 55-3 66 4 20 13a990 990 0 0 0-200 49 411 411 0 0 0-139 147c-4 0-7 10-8 22-1 11-7 24-13 28s-10 13-9 21-1 22-5 31-2 26 4 37c11 22 6 41-11 41-5 0-9-19-9-42zM14085 4858c-33-11-88-21-122-21-35-1-63-6-63-10 0-9 120-4 180 8 42 8 80 25 80 37 0 10-4 10-75-14zM4010 4828c0-4 23-8 50-8 28 0 50 3 50 8 0 4-23 7-50 8-28 0-50-3-50-8zM4354 4828c-3-4 29-8 70-8 42 0 76 3 76 8 0 10-140 11-146 0zM4930 4830c0-6 16-10 35-10s35 4 35 8c0 5-16 9-35 10s-35-3-35-8zM5090 4829c0-5 17-9 37-9s33 3 30 6c-10 11-67 13-67 3zM6040 4828c0-4 32-8 70-8 39 0 70 4 70 8s-31 8-70 8c-38 1-70-3-70-8zM6690 4830c0-5 16-10 36-10 19 0 33 4 30 8-7 12-66 14-66 2zM7470 4829c0-5 16-9 35-9s35 4 35 8-16 8-35 9-35-3-35-8zM8110 4828c0-4 53-8 117-8s114 2 112 5c-9 8-229 12-229 3zM8910 4828c0-4 16-8 35-8s35 4 35 8-16 8-35 8-35-4-35-8zM9050 4829c0-5 17-9 37-9s33 3 30 6c-10 11-67 13-67 3zM9335 4830c-4-7 30-10 101-10 59 0 104 3 100 7-11 11-194 15-201 3zM9750 4829c0-5 19-9 42-9 49 0 47 5-4 13-21 3-38 2-38-4zM10210 4829c0-5 25-9 55-9s55 4 55 8c0 5-25 9-55 9s-55-4-55-8zM12010 4829c0-5 17-9 37-9s33 3 29 7c-10 11-66 13-66 2zM12770 4830c0-6 16-10 35-10s35 4 35 8c0 5-16 9-35 10s-35-3-35-8zM13090 4830c0-5 16-10 36-10 19 0 33 4 30 8-7 12-66 14-66 2zM13250 4830c0-5 16-10 36-10 19 0 33 4 30 8-7 12-66 14-66 2zM13333 4828c-2-5 98-8 223-8s225 3 222 6c-9 8-439 10-445 2z"/></g><g fill="#0056FF" style="transform:none"><path d="M9115 16209a873 873 0 0 1-612-292c-49-61-118-176-110-184 3-3 14 8 24 25a967 967 0 0 0 105 160c6 15 119 101 173 132 30 17 55 35 55 39s6 8 13 8c6 1 44 13 82 28 75 29 134 41 259 55 46 5 82 14 87 22 7 10 9 10 9 1 0-7 9-13 20-13s20 4 20 9c0 9-26 22-38 20l-87-10zM12320 16210c0-5 7-10 15-10s15 5 15 10c0 6-7 10-15 10s-15-4-15-10zM15450 16203c0-14 35-23 96-23 28 0 54-3 58-7s25-9 47-10c22-2 48-7 59-13 10-5 34-10 52-10 19 0 49-11 71-26 21-14 63-36 92-49s57-30 62-37c10-17 61-43 68-36 9 8-21 35-83 75-79 50-193 96-302 121-71 17-220 26-220 15zM16070 15976c0-9 5-16 11-16 5 0 7-4 4-10-3-5-2-10 3-10 14 0 117-132 152-193 40-71 70-159 78-231 4-33 13-61 20-64 15-5 16 29 2 72l-31 101a821 821 0 0 1-176 308c-50 54-63 63-63 43zM8346 15629c-13-46-28-111-31-144l-11-80c-3-12 2-8 12 10 10 16 18 49 18 72 1 24 5 43 10 43 4 0 5 11 2 25-4 14-1 35 6 48 23 42 37 92 28 101-5 5-19-26-34-75zM16347 15406c-13-33-8-86 8-86s20 49 6 84c-7 18-8 18-14 2zM8305 15363c-9-20-20-631-12-623 3 3 7 133 10 290 4 157 9 300 13 318 7 35 1 43-11 15zM16350 14995c0-24 5-35 15-35s15 11 15 35-5 35-15 35-15-11-15-35zM16350 14915c0-24 5-35 15-35s15 11 15 35-5 35-15 35-15-11-15-35zM16350 14030c0-5 7-10 15-10s15 5 15 10c0 6-7 10-15 10s-15-4-15-10zM16350 13870c0-20 5-30 15-30s15 10 15 30-5 30-15 30-15-10-15-30zM8293 13215c0-170 1-302 4-292 2 9 9 17 14 17s9 86 9 205c0 157-3 205-12 205s-8 4 2 10c13 9 13 10 0 10s-13 1 0 10c9 6 10 10 3 10-8 0-13 24-16 68-2 37-3-72-4-243zM8246 12844c-38-61-46-86-21-60 8 8 15 19 15 25s13 23 29 39c19 18 27 33 22 41-6 9-19-5-45-45zM10865 12847l-90-10a780 780 0 0 1-186-103c-9-5-99-88-200-184-101-97-224-214-274-260l-105-101-130-125a39108 39108 0 0 1-535-510c-49-45-450-427-611-582-8-7-14-17-14-20 0-4-9-13-21-20-16-11-24-11-37-1-9 7-8 3 4-10l21-22 59 58 165 158a171974 171974 0 0 0 1289 1229l220 210c166 161 204 193 280 231 80 41 143 55 249 55 52 0 91 3 87 7-10 11-87 10-171 0zM11085 12839c-22-5-24-7-9-8 12 0 40-8 63-16 22-8 41-10 41-5 0 6-9 10-20 10s-20 4-20 9c0 14-22 18-55 10zM8160 12709l-62-104-243-385c-80-124-155-250-155-263 0-7 9-22 20-32s20-13 20-8c0 6-7 16-15 23-14 12-14 15 0 30 8 9 15 22 15 28 0 7 9 21 20 32s18 20 14 20c-3 0 6 15 20 33 14 19 23 37 19 41-5 4 0 12 10 17 9 6 17 18 17 28 0 11 6 21 14 24s22 23 32 44 24 42 31 46 13 12 13 18c0 5 16 32 35 60s35 56 35 63c0 6 9 17 20 24s20 21 20 31c0 11 4 22 9 26a610 610 0 0 1 99 157c11 5 54 89 48 95-2 3-19-19-36-48zM11402 12633c59-59 110-104 113-101 9 9-187 208-205 208-8 0 33-48 92-107zM11520 12515c0-10 63-75 73-75 5 0-2 9-16 21-15 11-26 23-26 27 3 20-3 32-16 32-8 0-15-2-15-5zM11679 12336c25-27 41-33 41-16 0 5-15 17-32 26l-33 17 24-27zM11744 12261c31-32 49-40 41-18-3 6-20 20-38 30l-32 19 29-31zM11841 12152c103-113 345-387 357-404 7-10 18-18 23-18 6 0-6 17-25 38-20 20-36 43-36 50s-6 15-13 18c-7 2-42 39-78 81-35 42-92 105-126 140-35 34-63 69-63 77 0 16-55 66-72 66-6 0 9-22 33-48zM7807 11834c67-77 91-99 98-93 4 5-111 129-140 150-11 8 8-18 42-57zM12230 11715c0-3 28-36 63-74l147-164c46-54 89-97 94-97 6 0-13 24-42 53s-52 56-52 59c0 7-12 22-120 138-39 41-70 78-70 83 0 4-4 7-10 7-5 0-10-2-10-5zM7970 11658c21-23 41-40 44-37 7 6-60 79-73 79-6 0 7-19 29-42z"/><path d="M8045 11578c62-74 275-291 280-286 3 3-16 28-42 56l-59 64-30 29c-11 8-51 50-91 92-71 76-109 106-58 45zM12548 11355c13-25 80-90 86-84 3 3-18 27-46 54-28 28-46 41-40 30zM8350 11257c0-13 127-143 134-136 3 3-26 37-64 76-39 38-70 66-70 60zM12691 11189l89-100c30-35 44-38 27-6-14 24-162 177-172 177-4 0 22-32 56-71zM8530 11063c25-32 44-43 34-20-3 6-17 21-32 32l-27 20 25-32zM12826 11038c12-23 115-130 120-125 2 2-7 16-20 30l-33 39c-14 22-76 74-67 56zM8580 11012c0-13 49-56 55-50 4 3-5 15-19 26-14 10-22 22-19 26 3 3 1 6-5 6-7 0-12-4-12-8zM12978 10865c13-25 100-110 106-104 5 4-66 82-99 109-17 14-17 14-7-5zM13150 10670c54-62 68-75 76-68 4 5-115 128-123 128-3 0 18-27 47-60zM13249 10556c14-14 26-24 29-22 7 8-8 25-31 37-21 11-21 10 2-15zM13290 10516c0-12 94-116 105-116 6 1 2 7-8 14-10 8-19 18-19 23-2 11-78 88-78 79zM13475 10300c21-22 41-37 44-35 6 7-60 75-73 75-6 0 7-18 29-40zM13583 10180c79-94 142-160 151-160 6 0 0 9-14 20-14 10-25 22-25 27-1 14-30 53-40 53-5 1-26 21-45 45-19 25-39 45-43 45-5 0 3-14 16-30zM13751 9995c0-18 137-160 146-152 4 5-1 13-12 19-10 6-27 21-37 32-74 86-97 110-97 101zM13905 9819c14-24 38-49 47-49 17 0 7 17-23 39-18 13-28 17-24 10zM14004 9703c54-71 116-132 116-114 0 7-12 25-27 40-16 15-43 45-61 67-53 64-76 70-28 7zM6340 9726c-6-6-10-15-10-22 0-6-7-17-15-24s-21-25-29-41c-8-17-24-45-36-64-31-49-17-43 18 8l56 82c31 45 45 50 61 20 6-11 48-56 94-100 47-44 107-105 135-135a9693 9693 0 0 1 186-195c0-6 152-155 158-155 4 0 37-29 72-65s70-65 77-65 13-6 13-13c0-16 42-57 58-57 6 0 18-15 26-34 14-34 52-64 64-51 11 12-917 922-928 911zM10961 9653c-13-16-58-63-100-107-42-43-66-72-53-65 12 8 22 17 22 21 0 5 7 8 15 8 9 0 18 7 22 15 9 25 106 115 124 115 16 0 65-58 56-66-3-3 13-23 34-45 22-22 37-44 34-50-4-5 1-12 9-15 9-3 13-10 10-15s2-9 10-9c9 0 16-4 16-8s16-25 35-45c20-21 33-42 30-46-3-5 2-12 11-15 9-4 15-9 12-12-3-2 12-23 33-46s36-45 33-49c-2-5 5-13 17-19 11-7 19-14 16-16-3-3 6-16 19-29s24-31 24-40c0-8 3-15 8-15 4 0 36-37 72-82a3047 3047 0 0 1 105-128c-3 0 13-16 35-36 21-19 42-45 46-57 3-11 10-25 15-31l139-183c19-25 34-49 34-52-1-3 7-12 18-19 10-7 16-17 13-22-3-4 4-10 14-13 10-2 25-16 32-30 19-34 100-150 114-162 15-13 80-98 80-105 1-10 40-50 50-50s39-57 37-72c-1-3 12-12 28-20 17-7 30-18 30-24 0-7 14-26 30-44 17-18 30-38 30-45 0-6 9-20 20-30s20-23 20-29 14-22 30-35c17-13 30-28 30-33 0-6 11-21 24-33s29-33 36-46c12-23 33-51 123-169a467 467 0 0 1 87-111c28-28 48-55 45-59-3-5 1-12 8-17 8-4 35-36 60-69 26-34 54-64 62-68 8-3 15-13 15-23s16-35 35-57c19-21 32-42 29-47s4-9 15-9c15 0 21-6 21-24 0-22 17-43 138-174 23-26 42-52 42-59s8-17 19-22c10-6 26-26 35-46 9-19 21-35 25-35 5 0 27-29 50-64s51-72 62-82c26-23 89-117 89-132 0-6 9-14 20-17 11-4 18-10 15-15-3-4 7-15 21-25 14-9 24-19 21-22-3-2 15-23 39-46s44-46 44-52c0-10 37-59 75-100 11-12 27-34 35-48 18-30 55-79 93-123 15-17 27-36 27-40 1-12 36-54 46-54 4 0 13-8 21-17 13-16 13-15 2 6-9 19-226 312-296 401a38192 38192 0 0 0-264 339c-9 9-54 66-99 126-46 61-90 116-97 123s-13 17-13 21-12 20-28 37a6906 6906 0 0 0-277 357 5962 5962 0 0 0-185 243l-47 60-73 91a370 370 0 0 0-58 85c-5 2-106 130-225 285l-264 344c-27 33-59 76-73 94l-86 112c-100 129-140 182-247 323a8838 8838 0 0 1-162 210l-55 70-62 80c-95 125-178 232-235 298-29 35-53 67-53 73 0 17-16 9-39-18zM6185 9480l-79-125-61-97-78-119-129-199-103-160-99-155-127-198c-38-59-69-109-69-112 0-2-23-39-51-82-54-80-81-123-165-255l-129-203-161-253-110-172-76-118c-26-41-48-76-48-78 0-3-5-10-10-17-6-7-25-34-42-62l-73-115c-43-66-59-100-49-100 8 0 45 47 45 57 1 10 32 66 40 73l22 35c9 17 27 42 41 57s26 32 26 39c0 6 9 20 21 30 11 9 19 19 18 21-2 2 5 12 14 23s18 25 18 30c1 6 10 21 20 34 11 13 19 30 19 37s6 17 13 21c16 11 80 103 71 103-4 0 0 6 9 13 10 7 23 29 30 49 13 37 35 71 75 114 12 14 22 31 22 39s11 26 25 41 25 35 25 44c0 10 7 24 16 31s20 22 25 34c11 25 29 53 49 75 34 38 54 65 52 70-1 3 4 13 12 22 14 16 39 58 41 68 4 15 32 67 43 78 31 34 62 80 62 95 0 10 5 17 10 17 6 0 18 17 28 38 9 20 19 39 22 42s14 22 25 43 31 51 45 66c14 16 26 35 28 42 2 8 17 27 33 43 16 15 29 35 29 42 0 8 5 14 11 14 5 0 7 5 4 10-3 6-2 10 4 10s8 6 5 14c-3 7 2 16 10 19 9 4 16 13 16 20 0 8 9 22 20 32s20 24 20 31 9 21 19 31 29 37 41 61c12 23 28 46 35 50 16 9 55 73 50 82-2 4 14 28 36 54a307 307 0 0 1 59 106c13 10 90 129 90 139 0 6 5 11 10 11 6 0 18 17 28 38 9 20 23 41 30 45 6 4 12 14 12 21s14 28 30 46c17 18 30 42 30 52s4 18 9 18c12 0 53 70 48 84-2 6-16-9-32-34zM14198 9485c57-72 141-160 142-149 0 7-11 19-23 27-13 9-30 28-37 44-7 15-35 48-63 73l-51 45 32-40zM10640 9333c-72-69-128-128-126-131 3-2 25 14 48 37l121 113c70 66 107 108 93 108-3 0-64-57-136-127zM14375 9282c21-23 40-42 42-42 9 0-24 38-51 59-26 21-25 18 9-17zM14450 9195c13-14 26-23 28-20 7 7-29 45-41 45-6 0 0-11 13-25zM10432 9137c-60-63-85-101-41-61 58 51 110 107 107 116-2 5-31-20-66-55zM14530 9105c30-30 56-55 58-55 9 0-22 41-55 73-60 59-63 43-3-18zM10195 8898c-77-79-115-120-85-93 30 28 87 82 126 121 39 40 80 76 89 81 10 6 16 15 14 22-2 6-67-53-144-131zM14630 8998c0-4 10-17 23-30s67-74 121-136 101-111 103-108c6 5-72 96-184 215-35 36-63 63-63 59zM7332 8753c-9-3 23-40 85-99 93-88 113-104 113-86-1 21-182 191-198 185zM9962 8670c-34-33-59-60-55-60 12 1 127 109 122 115-3 2-33-23-67-55zM14936 8648c14-24 144-159 144-150 0 5-9 17-20 27s-20 23-20 30c0 6-25 33-57 60-31 27-52 42-47 33zM9780 8500c-41-39-69-70-62-70 11 0 97 81 131 123 25 32 6 17-69-53zM7562 8521c-13-8 10-29 63-56 11-6 25-21 31-33 20-40 237-253 252-247 12 4-33 52-285 297-32 32-52 45-61 39zM15099 8464c28-36 75-84 83-84 14 0-41 67-70 86-26 17-27 17-13-2zM9378 8103l-324-325c-4-5 0-8 9-8 10 0 17 6 17 13 0 6 27 34 60 61 34 27 77 69 97 93 49 59 150 163 160 163 5 0 44 39 88 87 132 141 149 159 178 177 15 10 27 24 27 31s6 16 13 18c6 3 7 6 2 6-6 1-153-142-327-316zM15228 8313c55-64 110-116 97-93-5 8-26 30-47 49-21 18-38 38-38 45 0 12-43 56-55 56-4 0 16-26 43-57zM15406 8114c38-42 70-71 72-64 3 7-15 33-39 57l-63 63c-11 11-24 20-29 20s22-34 59-76zM7927 8164c-8-8 171-197 192-202 23-6 9 14-60 85-96 99-125 124-132 117zM15499 8015c14-28 128-151 134-145 3 3-28 41-69 85s-70 71-65 60zM16350 7850c0-11 7-20 15-20s15 9 15 20-7 20-15 20-15-9-15-20zM15700 7780c34-38 66-70 72-70 12 0-102 128-121 135-7 3 15-26 49-65zM8286 7802c-7-12 22-38 31-28 4 3 0 14-9 22-9 10-18 12-22 6zM8325 7760c-4-6 5-20 20-32l44-38c74-74 278-116 403-84 55 14 108 36 108 45 0 6 25 16 59 24 14 4 81 71 81 81 0 3-17-8-38-24a497 497 0 0 0-389-103c-42 7-83 16-92 21l-46 21c-16 7-56 32-87 56-34 26-59 39-63 33zM15785 7680c10-11 23-20 29-20s3 5-7 11c-9 6-15 14-12 20 4 5-2 9-11 9-16 0-16-1 1-20zM15877 7578c23-23 46-39 50-34 8 8-65 75-82 76-5 0 9-19 32-42zM15930 7522c0-10 22-32 32-32 5 0 3 9-4 20-13 20-28 27-28 12zM15989 7453c12-18 26-35 31-38s62-66 126-140c63-74 119-135 124-135 9 0-22 38-77 96-18 19-33 38-33 42s-11 18-25 32l-96 100c-39 41-62 61-50 43zM16330 7063l47-52c2-2 3 10 3 27 0 24-4 32-18 32-11 0-27 9-37 20s-22 20-28 20c-5 0 10-21 33-47zM4481 6812c-14-20-103-161-199-312l-209-330-54-82c-11-15-19-30-19-33s-16-28-35-55-35-52-35-54c0-3-14-26-31-51s-28-49-24-53c8-9 33 23 52 68 8 19 18 37 22 40 13 10 51 70 51 80 0 5 4 10 9 10s13 9 16 21c4 12 13 28 21 37 33 38 82 111 89 131 3 11 11 21 16 21 6 0 8 4 5 9s1 14 9 21 15 18 15 26c0 7 9 20 21 28s18 19 14 25c-3 6 1 14 9 17 9 3 13 10 10 15s2 12 10 15c9 3 13 10 10 16-3 5 3 16 15 24s21 20 21 25c0 11 48 79 63 90 5 3 9 10 9 15 1 20 18 54 28 54 5 0 10 7 10 15s5 15 11 15c5 0 8 4 5 8-3 5 6 21 20 37 13 15 24 33 24 39s10 22 23 36c17 20 35 70 24 70-1 0-13-17-26-38zM13940 5828c0-10 5-18 10-18 6 0 10-8 10-18s18-35 40-56 40-45 40-54c0-10 15-35 34-57s33-42 30-44c-2-2 5-11 16-18 11-8 18-19 15-24-4-5-2-9 4-9 18 0 58-44 86-95 15-28 37-60 48-73 26-28 47-86 47-130 0-20 6-35 15-39 26-9 28 3 10 62-18 64-34 91-126 217l-149 203c-111 154-129 175-130 153zM3794 5728a4624 4624 0 0 0-134-212c0-2-16-28-35-57-39-60-45-81-15-54 11 10 20 22 20 27 0 4 9 17 20 28s23 34 27 50c3 17 9 30 13 30 8 0 43 51 73 107 9 18 21 33 26 33s11 10 15 23c3 12 17 35 31 51 21 25 34 66 21 66-3 0-30-42-62-92zM3565 5369c-4-6-5-13-2-16 7-7 27 6 27 18s-17 12-25-2zM3531 5298c-10-24-22-62-26-86-6-36-5-41 10-36 9 4 14 13 11 20s0 16 5 20c6 3 9 17 6 30-2 13-1 24 3 24s10 16 12 35 3 35 1 35l-22-42zM14320 5087c0-13-5-28-12-35s-9-12-5-12c12 0-12-40-51-86-19-23-53-50-76-61l-76-36c-32-15-33-17-10-17 33 0 120 46 164 87 63 59 119 183 82 183-10 0-16-9-16-23zM3520 5055c0-31 110-165 134-165 6 0-13 22-42 49-28 26-49 51-45 55 3 3 0 6-7 6s-11 3-7 6c3 4-1 13-9 21s-12 19-9 24c4 5 1 9-4 9-6 0-11-2-11-5zM3731 4850c29-17 99-24 99-10 0 8-8 10-24 6-14-3-28-2-31 4-3 5-18 10-33 10-22-1-24-3-11-10zM3890 4830c-33-5-15-7 65-8 70 0 103 3 90 8-23 10-91 10-155 0zM4089 4829c-9-5 45-9 139-9 83 0 152 4 152 8 0 12-273 13-291 1zM4474 4829c-3-5 94-9 240-9 147 0 246 4 246 9 0 13-478 13-486 0zM4975 4830c-4-6 22-10 70-10s74 4 70 10c-3 6-35 10-70 10s-67-4-70-10zM5134 4829c-3-5 185-9 465-9 306 0 471 3 471 10 0 13-928 12-936-1zM6155 4830c-4-7 92-10 279-10 184 0 286 4 286 10s-100 10-279 10c-176 0-282-4-286-10zM6735 4830c-4-6 138-10 379-10 245 0 386 4 386 10 0 13-757 13-765 0zM7515 4830c-4-7 94-10 309-10 177 0 316 4 316 9 0 13-617 14-625 1zM8330 4830c-14-5 118-8 293-9 196-1 316 3 312 8-7 12-568 12-605 1zM8955 4830c-4-6 18-10 60-10s64 4 60 10c-3 6-30 10-60 10s-57-4-60-10zM9095 4829c-4-5 61-9 169-9 97 0 176 4 176 9 0 11-338 12-345 0zM9514 4829c-3-5 56-9 131-9 88 0 134 4 130 10-8 12-253 11-261-1zM9815 4830c-12-5 69-9 203-9 142-1 222 3 222 9 0 12-396 12-425 0zM10285 4830c-11-5 373-9 868-9 577-1 886 2 882 9-7 12-1721 12-1750 0zM12055 4830c-4-6 134-10 369-10 243 0 376 4 376 10 0 13-737 13-745 0zM12815 4829c-4-5 56-9 149-9 91 0 156 4 156 9 0 13-298 13-305 0zM13134 4828c-3-4 29-8 70-8 47 0 76 4 76 11 0 12-138 10-146-3zM13293 4828c-2-5 12-8 31-8 20 0 36 4 36 9 0 10-60 9-67-1zM13654 4828c-3-4 11-8 30-8 20 0 36 2 36 4 0 8-61 12-66 4zM13765 4830c-13-6 11-9 75-9 54 0 89 3 82 8-18 11-132 12-157 1zM14000 4830c-12-8-10-10 10-10 14 0 32 5 40 10 12 8 10 10-10 10-14 0-32-5-40-10z"/></g><path fill="#009325" d="M4360 14281c-61-20-101-55-371-324-207-206-292-298-307-331-30-63-30-161-1-213 38-68 38-68 398-438a171693 171693 0 0 1 1316-1366c147-156 617-642 835-863 225-229 1858-1875 1945-1960l200-196c180-177 209-194 320-193 125 1 139 11 555 423a125959 125959 0 0 1 1184 1152l336 328 115 111 50-54c62-66 297-334 345-392l125-145a37702 37702 0 0 1 364-420c4-3 35-39 71-80l70-80 34-40c15-19 47-55 70-80l70-80c15-19 47-55 70-80 22-25 66-74 96-110l60-70 70-80 70-80 34-40c15-19 47-55 70-80l70-80c15-19 47-55 70-80 22-25 66-74 96-110l60-70 172-195 237-270a92352 92352 0 0 1 396-455l249-285c33-38 67-77 76-85 8-8 33-37 54-64l60-70a3577 3577 0 0 0 156-176l60-70c30-36 62-72 70-80s40-44 70-80l60-70c8-7 126-143 205-235l75-85 114-130 145-165c32-35 114-128 201-229l74-84 49-55-104-101-269-256c-285-268-260-239-260-289 0-37 5-48 38-78 42-39 87-63 152-83l100-30a10486 10486 0 0 0 320-101l160-49 160-50 190-60 190-60 160-50c58-17 130-40 160-50l130-40 160-50a29243 29243 0 0 1 410-130 21985 21985 0 0 1 285-89c167-51 304-95 323-102 13-5 40-9 62-9 32 0 43 6 69 37 47 57 50 130 12 263-19 69-53 196-60 230-7 31-32 125-78 290l-34 128-39 147c-59 220-97 367-176 675l-144 555-49 188-62 235-48 188c-30 114-46 140-107 170-60 29-104 28-133-4l-91-87-265-250c-316-300-303-289-317-274a39195 39195 0 0 0-533 618l-125 146-245 286a189443 189443 0 0 0-480 560c-16 21-91 108-165 194l-175 204-214 252-110 129-82 95-254 295-244 285-81 95-60 70a14687 14687 0 0 0-191 224l-57 66-273 320-298 349-107 125-389 457-184 214-49 60c-13 17-40 48-60 70a3779 3779 0 0 0-168 195c-183 213-455 535-483 571-99 126-215 154-351 84-45-23-82-56-330-299l-350-341c-80-76-226-218-325-315l-305-295c-123-117-318-307-656-637l-172-166-183 186c-167 169-525 540-814 842l-290 300-545 565c-200 209-452 470-560 580l-555 575a120377 120377 0 0 1-821 850c-348 365-364 378-480 385-38 3-80 1-94-4z" style="transform:none"/></svg>
